<?xml version="1.0" encoding="UTF-8"?><svg xmlns="http://www.w3.org/2000/svg" viewBox="0 0 930 897"><defs><style>.cls-1{fill:#5eaac1;}</style></defs><g id="ellipse_bottom_right"><circle class="cls-1" cx="704" cy="819" r="77"/></g><g id="elllipse_right"><circle class="cls-1" cx="853" cy="348" r="77"/></g><g id="ellipse_top"><circle class="cls-1" cx="465" cy="77" r="77"/></g><g id="ellipse_left"><circle class="cls-1" cx="77" cy="348" r="77"/></g><g id="ellipse_bottom_left"><circle class="cls-1" cx="227" cy="820" r="77"/></g><g id="path_bottom_left"><path class="cls-1" d="M600.67,755.16c-32.01-16.18-63.73-32.93-94.91-50.66-28.77-16.37-57.06-33.59-84.67-51.87-27.28-18.06-53.9-37.14-79.76-57.18-27.88-21.6-54.93-44.26-81.34-67.63-29.98-26.52-59.23-53.9-87.85-81.87-3.75-3.67-7.44-7.39-10.95-11.29-4.32-4.79-11.37,2.3-7.07,7.07,7.21,8.01,15.14,15.37,22.9,22.85,7.4,7.13,14.84,14.23,22.32,21.28,14.32,13.51,28.79,26.86,43.44,40,26.67,23.92,53.97,47.15,82.1,69.33,26.23,20.68,53.16,40.46,80.83,59.16,27.39,18.51,55.48,35.96,84.09,52.52,30.64,17.74,61.86,34.47,93.38,50.6,4.14,2.12,8.29,4.22,12.44,6.32,2.41,1.22,5.42,.64,6.84-1.79,1.3-2.22,.63-5.62-1.79-6.84h0Z"/></g><g id="path_bottom_right"><path class="cls-1" d="M335.18,763.79c31.66-16.55,63.1-33.53,94.07-51.35,28.81-16.58,57.19-33.9,84.93-52.2,27.58-18.19,54.5-37.35,80.72-57.45,28.33-21.71,55.85-44.44,82.68-67.97,30.13-26.43,59.48-53.78,88.14-81.8,3.75-3.67,7.44-7.39,10.95-11.29,4.3-4.77-2.75-11.87-7.07-7.07-7.04,7.82-14.77,15.02-22.34,22.31-7.57,7.29-15.18,14.54-22.83,21.73-14.37,13.51-28.91,26.85-43.65,39.97-26.67,23.74-54,46.74-82.16,68.71-26,20.28-52.74,39.62-80.12,57.99-27.4,18.38-55.44,35.79-83.93,52.42-30.29,17.68-61.06,34.51-92.08,50.87-4.11,2.17-8.23,4.33-12.35,6.49-5.7,2.98-.66,11.62,5.05,8.63h0Z"/></g><g id="path_top"><path class="cls-1" d="M741.33,297.18c-35.89-5.43-71.85-10.38-107.93-14.37-33.29-3.68-66.68-6.5-100.13-8.15s-66.77-2.11-100.16-1.39c-35.78,.77-71.52,2.89-107.16,6.04-40.44,3.57-80.78,8.36-120.97,14.08-5.21,.74-10.4,1.57-15.55,2.64-6.3,1.3-3.63,10.94,2.66,9.64,10.22-2.11,20.61-3.35,30.95-4.75s20.6-2.71,30.91-3.97c19.65-2.41,39.33-4.58,59.04-6.45,35.91-3.41,71.91-5.83,107.97-6.91,33.26-1,66.55-.84,99.79,.51s66.3,3.87,99.32,7.29c35.07,3.63,70.03,8.24,104.91,13.39,4.57,.67,9.14,1.36,13.7,2.05,2.67,.4,5.38-.67,6.15-3.49,.65-2.36-.81-5.74-3.49-6.15h0Z"/></g><g id="path_left"><path class="cls-1" d="M391.68,169.48c-19.21,36.68-37.32,73.93-54.11,111.77-15.63,35.22-30.15,70.94-43.36,107.13-12.23,33.5-23.34,67.41-33.2,101.69-9.28,32.25-17.45,64.81-24.44,97.63-3.32,15.62-6.38,31.3-9.16,47.02s-5.06,32.67-8.01,48.93c-.92,5.1-1.8,10.2-2.4,15.34-.32,2.69,2.52,5,5,5,2.96,0,4.68-2.31,5-5,1.11-9.49,3.16-18.89,4.59-28.33,1.16-7.68,2.39-15.36,3.69-23.02,2.62-15.52,5.51-30.99,8.66-46.41,6.62-32.37,14.4-64.5,23.26-96.33,9.49-34.07,20.21-67.8,32.06-101.13,12.61-35.48,26.47-70.51,41.48-105.04,16.22-37.32,33.73-74.07,52.33-110.26,2.4-4.66,4.82-9.32,7.25-13.96,2.98-5.7-5.64-10.76-8.63-5.05h0Z"/></g><g id="path_right"><path class="cls-1" d="M531.68,174.52c19.06,36.39,37.04,73.34,53.72,110.88,15.43,34.72,29.72,69.94,42.75,105.63,12.23,33.5,23.34,67.41,33.2,101.69,9.21,31.99,17.32,64.3,24.27,96.85,3.31,15.5,6.35,31.06,9.12,46.66,2.84,15.99,4.97,32.1,7.85,48.07,.88,4.88,1.83,9.76,2.41,14.69,.31,2.68,2.07,5,5,5,2.46,0,5.32-2.3,5-5-1.18-10.01-3.28-19.9-4.78-29.87-1.14-7.55-2.34-15.09-3.6-22.63-2.65-15.77-5.57-31.49-8.76-47.15-6.65-32.63-14.48-65.02-23.42-97.1-9.49-34.07-20.21-67.8-32.06-101.13-12.79-35.99-26.9-71.51-42.1-106.54-16.33-37.62-33.96-74.67-52.72-111.15-2.4-4.66-4.82-9.32-7.25-13.96-2.99-5.7-11.62-.65-8.63,5.05h0Z"/></g><g id="eye_right"><path class="cls-1" d="M575.42,409.71l-25.2-26.39-3.56-3.73c-1.1-1.15-2.67-1.58-4.2-1.38-1.66,.22-2.68,1.08-3.65,2.39l-20.41,27.35-2.92,3.91c-1.57,2.1-.41,5.68,1.79,6.84,2.62,1.38,5.16,.45,6.84-1.79l20.41-27.35,2.92-3.91-7.85,1.01,25.2,26.39,3.56,3.73c1.81,1.9,5.27,1.96,7.07,0s1.93-5.05,0-7.07h0Z"/></g><g id="eye_left"><path class="cls-1" d="M366.32,416.78l25.2-26.39,3.56-3.73-7.85-1.01,20.41,27.35,2.92,3.91c1.56,2.09,4.4,3.37,6.84,1.79,2.07-1.33,3.47-4.6,1.79-6.84l-20.41-27.35-2.92-3.91c-.98-1.31-1.99-2.16-3.65-2.39-1.53-.21-3.1,.23-4.2,1.38l-25.2,26.39-3.56,3.73c-1.81,1.89-2.02,5.22,0,7.07s5.14,2.02,7.07,0h0Z"/></g></svg>